# xmcd
#
# Track frame offsets: 
#        150
#        23872
#        51230
#        77734
#        100785
#        125170
#        157833
#        196347
#        200887
#        229548
#        254234
#        261880
#        288078
#
# Disc length: 4103 seconds
#
# Revision: 1
# Processed by: cddbd v1.5.2PL0 Copyright (c) Steve Scherf et al.
# Submitted via: ExactAudioCopy v0.99pb4
#
DISCID=b810050d
DTITLE=Ian Siegal - Meat and Potatoes
DYEAR=2005
DGENRE=Blues
TTITLE0=Sugar Rush
TTITLE1=Revelator
TTITLE2=Butter Side Up
TTITLE3=Drowned My Sorrows
TTITLE4=Brandy Balloon
TTITLE5=Work
TTITLE6=She Got The Devil In Her
TTITLE7=Interlude #1 - Cooking With Sam
TTITLE8=Falling On Down Again
TTITLE9=Bloodshot
TTITLE10=Interlude #2 - Mud Pie
TTITLE11=Magdalena
TTITLE12=Meat and Potatoes
EXTD=
EXTT0=
EXTT1=
EXTT2=
EXTT3=
EXTT4=
EXTT5=
EXTT6=
EXTT7=
EXTT8=
EXTT9=
EXTT10=
EXTT11=
EXTT12=
PLAYORDER=
